<?xml version="1.0" encoding="UTF-8"?>
<svg version="1.1" xmlns="http://www.w3.org/2000/svg" width="2500" height="2500">
<path d="M0 0 C5.63941998 3.97322771 8.9707185 8.23532673 10.75 14.9375 C11.03512468 18.39077685 11.02017637 21.83121855 11.00537109 25.29467773 C11.00899155 26.32484512 11.012612 27.35501251 11.01634216 28.41639709 C11.02322345 30.64910943 11.02574398 32.88183855 11.02439499 35.11456108 C11.02342677 38.66039673 11.0364101 42.20593168 11.05337524 45.75172424 C11.09953884 55.83209872 11.12422162 65.91244335 11.13085938 75.99291992 C11.13590367 82.16619117 11.16030636 88.33915054 11.19618607 94.51231575 C11.2059217 96.85278504 11.20835047 99.19329759 11.20301437 101.53378105 C11.16285286 120.02672303 11.76891367 138.48450151 25.125 152.875 C29.12839886 156.55356168 33.61452187 159.20210822 38.93701172 160.45043945 C42.40156628 161.28131401 44.95584705 162.02041619 47.33349609 164.76611328 C48.7116512 167.08431741 49.87648573 169.42352244 51 171.875 C51.39445313 172.66712891 51.78890625 173.45925781 52.1953125 174.27539062 C55.34310275 180.69955733 58.04827866 187.31628988 60.75 193.9375 C48.16313047 201.31769668 35.55016155 208.64741502 22.875 215.875 C10.54972106 222.90348766 -1.74722095 229.9799045 -14.03222656 237.07861328 C-20.5087428 240.82005445 -26.98815689 244.55647658 -33.4675293 248.29296875 C-38.48301531 251.18565648 -43.49763954 254.07979847 -48.50863647 256.98025513 C-50.26658069 257.99767706 -52.02484442 259.01454461 -53.78320312 260.03125 C-55.97654401 261.2996881 -58.16929847 262.56914102 -60.36132812 263.83984375 C-83.68145285 277.31968463 -83.68145285 277.31968463 -92.2734375 275.51171875 C-97.78696257 273.79006245 -101.09613646 270.73922995 -104.25 265.9375 C-106.20946946 260.05909161 -106.04330377 253.36148374 -104.125 247.5 C-99.30463858 240.91217273 -92.1963463 237.43508068 -85.20501709 233.52389526 C-82.69444763 232.11923069 -80.19152163 230.70119254 -77.68814087 229.2837677 C-76.40397508 228.55672198 -75.11944782 227.83031435 -73.83456421 227.10453796 C-67.89927045 223.74936364 -62.00729183 220.32220002 -56.125 216.875 C-44.55030464 210.10173855 -32.93469591 203.40065695 -21.31494141 196.70507812 C-13.95381439 192.45985273 -6.60216889 188.19821474 0.75 183.9375 C0.16774658 183.26545532 0.16774658 183.26545532 -0.42626953 182.57983398 C-12.66626576 168.38801372 -21.67457507 153.50440946 -25.25 134.9375 C-25.41631424 134.15649429 -25.58262848 133.37548859 -25.75398254 132.57081604 C-27.91655973 120.89796302 -27.55883667 109.11699009 -27.55078125 97.2890625 C-27.55467417 94.90302456 -27.55901006 92.5169873 -27.56376648 90.13095093 C-27.57119325 85.15352113 -27.57096134 80.17616233 -27.56567383 75.19873047 C-27.55985628 68.82678013 -27.57688255 62.45511831 -27.6000185 56.08321571 C-27.61475212 51.16582548 -27.6156285 46.24850504 -27.61250877 41.33109665 C-27.61302126 38.98119913 -27.61824531 36.63129764 -27.62832069 34.28142166 C-27.64067262 31.00073642 -27.6339026 27.72061773 -27.62231445 24.43994141 C-27.62995819 23.47565216 -27.63760193 22.51136292 -27.64547729 21.51785278 C-27.59083154 14.50970129 -26.56639356 9.69213018 -21.9375 4.1875 C-15.17994809 -1.46998532 -8.3870197 -2.74191029 0 0 Z " fill="#4B9BFF" transform="translate(605.25,1083.0625)"/>
<path d="M0 0 C3.48658224 0.66889598 6.10909341 2.06590771 9.1640625 3.8515625 C10.19015625 4.44775391 11.21625 5.04394531 12.2734375 5.65820312 C13.93246094 6.63176758 13.93246094 6.63176758 15.625 7.625 C16.79136319 8.30455761 17.9580353 8.98358524 19.125 9.66210938 C21.54970623 11.07249133 23.9730655 12.48514745 26.39550781 13.89941406 C31.91797483 17.12100729 37.45997173 20.30873753 43 23.5 C45.16414379 24.74855703 47.328206 25.99725547 49.4921875 27.24609375 C53.85065388 29.76069436 58.21012191 32.27354661 62.5703125 34.78515625 C73.9969914 41.36922938 85.40695462 47.97988564 96.7878418 54.64282227 C102.31019029 57.86909155 107.8496611 61.06275302 113.41015625 64.22265625 C114.03748657 64.57947983 114.66481689 64.93630341 115.31115723 65.30393982 C118.36290937 67.03917034 121.4166985 68.77063019 124.47412109 70.49584961 C145.47132035 82.41396104 145.47132035 82.41396104 148 90 C148.71955243 96.9385413 148.72081302 102.62227744 144.49609375 108.37890625 C140.13763268 113.10152073 135.9670192 114.70911577 129.8125 115.3125 C120.45041042 114.54511561 112.02165627 108.2986359 104.0625 103.6875 C102.82541202 102.97504676 101.58810314 102.26297695 100.35058594 101.55126953 C97.8085904 100.08830358 95.26813435 98.62271804 92.72900391 97.15478516 C89.23235379 95.13336027 85.73184611 93.11869632 82.23046875 91.10546875 C62.08799188 79.51623344 42.01745083 67.80376856 22 56 C21.70867187 56.94359375 21.41734375 57.8871875 21.1171875 58.859375 C15.52547684 76.56452605 7.06815191 91.59284635 -7 104 C-7.79277344 104.70769531 -8.58554687 105.41539063 -9.40234375 106.14453125 C-19.4902961 114.48888689 -31.0900654 120.53711094 -42.47546387 126.90119934 C-48.72578239 130.39661516 -54.92756067 133.97426012 -61.125 137.5625 C-63.25384075 138.7917801 -65.38274713 140.02094657 -67.51171875 141.25 C-71.42524476 143.51117486 -75.33782072 145.77398172 -79.24957275 148.03822327 C-81.00906275 149.05644187 -82.76888057 150.07409146 -84.52880859 151.09155273 C-86.72381783 152.36073405 -88.91820371 153.63099437 -91.11181641 154.90258789 C-94.06884143 156.61188796 -97.03374601 158.30677998 -100 160 C-101.47533203 160.86069092 -101.47533203 160.86069092 -102.98046875 161.73876953 C-103.934375 162.28259277 -104.88828125 162.82641602 -105.87109375 163.38671875 C-106.71212646 163.87229248 -107.55315918 164.35786621 -108.41967773 164.8581543 C-113.22600051 166.98505104 -117.90309504 167.04018468 -123 166 C-127.74074546 163.94730609 -131.00991976 161.39230033 -134 157.1875 C-136.22617867 150.0915555 -136.8138777 144.40827404 -133.56787109 137.48803711 C-128.70493583 129.77109951 -117.71956562 125.44434099 -109.9375 121.1875 C-107.70496153 119.95190683 -105.47319114 118.71492483 -103.2421875 117.4765625 C-102.16678711 116.88004883 -101.09138672 116.28353516 -99.98339844 115.66894531 C-95.48098954 113.15024914 -91.03983555 110.53511775 -86.60546875 107.89916992 C-81.222252 104.70449943 -75.79990189 101.58169095 -70.36889648 98.46899414 C-36.48327885 80.55341466 -36.48327885 80.55341466 -16.25 49.5 C-15.57821553 42.78215535 -16.12035654 37.51609731 -18 31 C-17.56636571 27.44462503 -16.57724267 24.88874158 -14.70703125 21.85546875 C-14.24103516 21.09556641 -13.77503906 20.33566406 -13.29492188 19.55273438 C-12.80572266 18.77220703 -12.31652344 17.99167969 -11.8125 17.1875 C-11.34263672 16.41857422 -10.87277344 15.64964844 -10.38867188 14.85742188 C-7.19141031 9.68858838 -3.72710927 4.79950511 0 0 Z " fill="#6D6CFF" transform="translate(711,1244)"/>
<path d="M0 0 C3.70499601 2.59601761 5.98698329 6.09659139 7.72265625 10.20703125 C7.96875191 12.60454178 7.96875191 12.60454178 7.96316528 15.31964111 C7.96591461 16.35166656 7.96866394 17.38369202 7.97149658 18.44699097 C7.96430603 19.57339996 7.95711548 20.69980896 7.94970703 21.86035156 C7.94999908 23.05087128 7.95029114 24.24139099 7.95059204 25.46798706 C7.94943795 28.72804555 7.93941165 31.98793205 7.92544413 35.24795628 C7.91293644 38.65656855 7.91176624 42.06518424 7.90939331 45.47381592 C7.90317865 51.92650451 7.88676804 58.37912528 7.86669433 64.83178401 C7.84433489 72.17876491 7.83334179 79.52574907 7.82330346 86.87275553 C7.80240179 101.98421855 7.76722609 117.09561811 7.72265625 132.20703125 C8.51929688 131.92988281 9.3159375 131.65273437 10.13671875 131.3671875 C11.19632813 131.00496094 12.2559375 130.64273437 13.34765625 130.26953125 C14.91386719 129.73005859 14.91386719 129.73005859 16.51171875 129.1796875 C38.49260563 122.52124366 62.85202299 127.90554816 82.72265625 138.20703125 C87.63589279 140.88584996 92.40905569 143.79579334 97.19482422 146.69384766 C102.14611223 149.65773437 107.15771111 152.51815308 112.16015625 155.39453125 C114.39717519 156.68352473 116.63415383 157.97258814 118.87109375 159.26171875 C121.15489642 160.57691234 123.43875085 161.89201606 125.72265625 163.20703125 C132.3977826 167.05040084 139.07194319 170.89530904 145.73828125 174.75390625 C149.46612123 176.9108805 153.20395986 179.0474234 156.95703125 181.16015625 C158.48310658 182.02988886 160.0091508 182.89967605 161.53515625 183.76953125 C162.20426025 184.13860596 162.87336426 184.50768066 163.56274414 184.88793945 C168.75890556 187.87435627 172.07797739 191.30926374 175.03515625 196.51953125 C176.69438699 203.00561507 176.29369805 208.54166846 173 214.4140625 C170.30389914 218.19849766 167.17190483 220.72394839 162.72265625 222.20703125 C152.97653885 223.7250106 145.89693825 219.94752278 137.72265625 215.20703125 C137.10745117 214.85350586 136.49224609 214.49998047 135.85839844 214.13574219 C132.43544597 212.16035085 129.03411893 210.15051614 125.640625 208.125 C118.79020446 204.04368712 111.87021678 200.08257254 104.95898438 196.10546875 C99.22002594 192.80232765 93.48625203 189.49100377 87.765625 186.15625 C81.43772824 182.47148058 75.09352082 178.81703566 68.72265625 175.20703125 C67.98563477 174.7888916 67.24861328 174.37075195 66.48925781 173.93994141 C53.54083993 166.69909257 38.39730033 161.4928069 23.59765625 165.39453125 C18.59298589 167.07058674 12.88119424 169.38699229 9.58354187 173.69523621 C6.65931501 177.06210768 4.56076997 178.13805858 0.05940247 178.50849915 C-4.38378699 178.42927848 -8.79405096 178.00902106 -13.21484375 177.58203125 C-14.77254814 177.45536755 -16.33049425 177.33164025 -17.88867188 177.2109375 C-21.68853384 176.91018166 -25.48289719 176.56955597 -29.27734375 176.20703125 C-29.37080889 154.68425673 -29.44133369 133.1615157 -29.48459244 111.63857937 C-29.50521262 101.6449702 -29.53332287 91.65148718 -29.57910156 81.65795898 C-29.61898592 72.94701222 -29.64478052 64.23615681 -29.65369773 55.52512127 C-29.65890976 50.9131874 -29.67114864 46.3015149 -29.70026398 41.68966484 C-29.72745834 37.34682096 -29.73578064 33.00434557 -29.72977448 28.66142464 C-29.73087292 27.06952536 -29.73880299 25.47761349 -29.75416565 23.88578796 C-29.89123821 8.94728529 -29.89123821 8.94728529 -25.27734375 3.20703125 C-17.85518794 -3.83450119 -8.92107619 -5.01921384 0 0 Z " fill="#32BCFF" transform="translate(690.27734375,1044.79296875)"/>
<path d="M0 0 C1.02230209 -0.00570007 2.04460419 -0.01140015 3.09788513 -0.01727295 C5.2570595 -0.02668958 7.41624802 -0.03324361 9.57543945 -0.03710938 C12.83636399 -0.04677209 16.09664606 -0.07781035 19.35742188 -0.109375 C37.31113064 -0.20163076 52.24126077 0.63732999 66.05859375 13.328125 C75.67413625 23.36988835 77.80821439 34.2984964 77.58203125 47.640625 C77.17953276 57.34841043 73.16018389 65.36385786 66.30859375 72.203125 C59.94124456 77.65733673 52.76441755 81.23610204 45.27734375 84.9140625 C44.18454102 85.45844971 43.09173828 86.00283691 41.96582031 86.5637207 C37.91778794 88.57734436 33.86278235 90.57692508 29.80859375 92.578125 C20.73359375 97.074375 11.65859375 101.570625 2.30859375 106.203125 C27.05859375 106.533125 51.80859375 106.863125 77.30859375 107.203125 C77.30859375 114.463125 77.30859375 121.723125 77.30859375 129.203125 C35.06859375 129.203125 -7.17140625 129.203125 -50.69140625 129.203125 C-50.69140625 121.613125 -50.69140625 114.023125 -50.69140625 106.203125 C-47.87528809 104.82648682 -45.05916992 103.44984863 -42.15771484 102.03149414 C-32.83884128 97.47162507 -23.53330525 92.88504249 -14.23404503 88.28531742 C-8.59729899 85.49821181 -2.95645468 82.72018099 2.69482422 79.96264648 C8.15191583 77.29945334 13.59682964 74.61274761 19.03422165 71.90957451 C21.10720804 70.88413882 23.18439083 69.86714032 25.26579666 68.85890388 C28.18838258 67.44138247 31.09438869 65.99415252 33.99853516 64.53930664 C34.85593292 64.13217941 35.71333069 63.72505219 36.59671021 63.30558777 C42.70437646 60.18871998 46.25957097 56.36907091 49.30859375 50.203125 C51.14282817 44.13084553 50.32186563 39.27225279 47.75390625 33.5078125 C44.80763147 28.80969866 40.50848375 25.93642167 35.30859375 24.203125 C33.89371813 24.09781756 32.47457544 24.0447225 31.0559082 24.02612305 C30.20104324 24.01328781 29.34617828 24.00045258 28.46540833 23.98722839 C27.54354233 23.97984146 26.62167633 23.97245453 25.671875 23.96484375 C24.24176338 23.95273613 24.24176338 23.95273613 22.78276062 23.94038391 C20.76282566 23.92655051 18.7428674 23.91582502 16.72290039 23.90795898 C13.65009541 23.89078707 10.57837799 23.8468989 7.50585938 23.80273438 C5.54037247 23.79260336 3.57487644 23.78408854 1.609375 23.77734375 C0.69763016 23.75983566 -0.21411469 23.74232758 -1.15348816 23.72428894 C-8.2777025 23.74822847 -13.63380419 25.40032312 -18.94140625 30.265625 C-21.51357116 34.58318752 -22.97391773 39.48003156 -24.69140625 44.203125 C-33.27140625 44.203125 -41.85140625 44.203125 -50.69140625 44.203125 C-50.69140625 30.82889915 -47.68766299 22.19378663 -38.69140625 12.203125 C-27.43592726 2.14225738 -14.534995 0.06368941 0 0 Z " fill="#1A1A1A" transform="translate(1623.69140625,1155.796875)"/>
<path d="M0 0 C0 42.57 0 85.14 0 129 C-8.91 129 -17.82 129 -27 129 C-27 115.14 -27 101.28 -27 87 C-60.66 87 -94.32 87 -129 87 C-129 79.41 -129 71.82 -129 64 C-120.07897791 56.75166955 -120.07897791 56.75166955 -115.73046875 54.80078125 C-109.60910795 51.88720332 -104.01194608 48.34424075 -98.3125 44.6875 C-96.2686888 43.40733931 -94.22309719 42.13001693 -92.17578125 40.85546875 C-85.12529099 36.45433451 -78.07751386 32.04886511 -71.02978516 27.64331055 C-65.86835819 24.41710144 -60.70623857 21.1920091 -55.54296875 17.96875 C-53.94678711 16.97198242 -53.94678711 16.97198242 -52.31835938 15.95507812 C-50.30557607 14.69818724 -48.29257341 13.44164755 -46.27929688 12.18554688 C-27.67793073 0.56780598 -25.70574462 0 0 0 Z M-33.1640625 30.53515625 C-34.02741211 31.09009766 -34.89076172 31.64503906 -35.78027344 32.21679688 C-37.18841309 33.13041992 -37.18841309 33.13041992 -38.625 34.0625 C-40.62182702 35.3459375 -42.61924438 36.62845689 -44.6171875 37.91015625 C-45.66100586 38.58062988 -46.70482422 39.25110352 -47.78027344 39.94189453 C-53.08117941 43.33032624 -58.41400118 46.66719861 -63.75 50 C-64.72404785 50.60980713 -65.6980957 51.21961426 -66.70166016 51.84790039 C-72.15944849 55.25679359 -77.64923547 58.59386209 -83.20800781 61.8359375 C-83.79936523 62.22007813 -84.39072266 62.60421875 -85 63 C-85 63.33 -85 63.66 -85 64 C-65.86 64 -46.72 64 -27 64 C-27 52.12 -27 40.24 -27 28 C-29.71116027 28 -30.88949335 29.06250924 -33.1640625 30.53515625 Z " fill="#1A1A1A" transform="translate(1846,1156)"/>
<path d="M0 0 C8.91 0 17.82 0 27 0 C27.33 19.47 27.66 38.94 28 59 C46.17447758 47.86087277 46.17447758 47.86087277 64.25 36.5625 C64.93682861 36.1284082 65.62365723 35.69431641 66.33129883 35.24707031 C67.01087646 34.81620117 67.6904541 34.38533203 68.390625 33.94140625 C69.10911621 33.50127197 69.82760742 33.0611377 70.56787109 32.60766602 C73.13757061 30.96388045 73.13757061 30.96388045 75.88916016 28.67163086 C86.33282951 20.56149287 96.06533672 20.91854218 108.875 21.4375 C110.83454221 21.48275015 112.79418621 21.523796 114.75390625 21.56054688 C119.50516653 21.65865829 124.25142819 21.81333729 129 22 C129 22.66 129 23.32 129 24 C127.43383789 25.15405273 127.43383789 25.15405273 125.22265625 26.43359375 C123.9994165 27.15168213 123.9994165 27.15168213 122.75146484 27.88427734 C121.86410645 28.39684082 120.97674805 28.9094043 120.0625 29.4375 C113.23846796 33.44812601 106.49635055 37.5372381 99.875 41.875 C93.99497154 45.72220692 88.0740093 49.46304618 82 53 C85.96002972 60.0415098 90.16002472 66.83814809 94.68212891 73.52905273 C99.52100294 80.71628227 104.14996688 88.03578094 108.79858398 95.34692383 C114.00333559 103.50767344 119.34503813 111.5676219 124.83496094 119.53955078 C125.38442383 120.3489209 125.93388672 121.15829102 126.5 121.9921875 C126.9846875 122.69714355 127.469375 123.40209961 127.96875 124.12841797 C129 126 129 126 129 129 C101.5327602 131.83968106 101.5327602 131.83968106 94.56591797 127.47509766 C90.84148731 123.40293145 88.90471064 118.49160183 86.97607422 113.38037109 C85.51609062 109.81988082 83.41790315 106.86432152 81.1875 103.75 C80.37292791 102.55264715 79.56320687 101.35198286 78.7578125 100.1484375 C78.32758789 99.50616211 77.89736328 98.86388672 77.45410156 98.20214844 C74.434464 93.62909088 71.50225651 88.99964204 68.5625 84.375 C67.95881592 83.42592773 67.35513184 82.47685547 66.7331543 81.49902344 C64.10692273 77.35964052 61.51000943 73.2112121 59 69 C53.49144036 70.48574716 49.30578663 73.17670611 44.625 76.3125 C43.1800935 77.26754162 41.73478243 78.22197144 40.2890625 79.17578125 C39.65693848 79.59770752 39.02481445 80.01963379 38.37353516 80.4543457 C36 82 36 82 33.98602295 82.94947815 C29.67893653 85.10368103 29.67893653 85.10368103 27.2628479 89.06626892 C26.97659928 91.63291834 26.94385342 94.0938103 27 96.67578125 C26.9836853 98.06351997 26.9836853 98.06351997 26.96704102 99.47929382 C26.94091176 102.42488516 26.96970592 105.36700178 27 108.3125 C26.99190733 110.313169 26.98022941 112.31382692 26.96484375 114.31445312 C26.92828127 119.21179445 26.96602073 124.10061457 27 129 C18.09 129 9.18 129 0 129 C0 86.43 0 43.86 0 0 Z " fill="#1A1A1A" transform="translate(1427,1156)"/>
<path d="M0 0 C9.9 0 19.8 0 30 0 C38.11345364 15.24993449 45.87363008 30.65739442 53.5625 46.125 C55.8947025 50.81631929 58.22984555 55.5061617 60.56640625 60.1953125 C61.09859268 61.2679837 61.63077911 62.34065491 62.17909241 63.4458313 C62.66727951 64.42550873 63.15546661 65.40518616 63.65844727 66.41455078 C64.30270409 67.71091965 64.30270409 67.71091965 64.9599762 69.03347778 C65.84802113 70.94618595 65.84802113 70.94618595 67 72 C69.56496943 66.43863577 72.12728986 60.87605683 74.6875 55.3125 C75.07004944 54.48120575 75.45259888 53.6499115 75.84674072 52.79342651 C81.63135711 40.21677075 87.34998248 27.61280255 92.9753418 14.96411133 C93.71071167 13.31318481 93.71071167 13.31318481 94.4609375 11.62890625 C95.09201416 10.2068689 95.09201416 10.2068689 95.73583984 8.75610352 C97.08930749 5.80529311 98.54816277 2.90367446 100 0 C109.57 0 119.14 0 129 0 C128.3048518 3.475741 127.84011747 5.70121152 126.44384766 8.7565918 C126.1240947 9.4632045 125.80434174 10.1698172 125.47489929 10.89784241 C124.94978508 12.0370237 124.94978508 12.0370237 124.4140625 13.19921875 C123.861455 14.41483742 123.861455 14.41483742 123.29768372 15.65501404 C122.07824932 18.33472259 120.8515581 21.01104559 119.625 23.6875 C118.76384471 25.57705627 117.90325818 27.46687184 117.04321289 29.35693359 C115.25418661 33.28731841 113.46270924 37.21657179 111.66943359 41.14501953 C107.9646386 49.26522139 104.28677154 57.39757528 100.61032104 65.53063965 C99.43214782 68.13683939 98.25337013 70.74276503 97.07446289 73.34863281 C84.62959865 100.86059799 72.23456755 128.39379631 60 156 C50.1 156 40.2 156 30 156 C33.37281675 145.88154976 33.37281675 145.88154976 35.00878906 142.47753906 C35.55385101 141.33155243 35.55385101 141.33155243 36.10992432 140.16241455 C36.49130554 139.371474 36.87268677 138.58053345 37.265625 137.765625 C38.08122853 136.0406006 38.89631798 134.31533305 39.7109375 132.58984375 C40.98476846 129.90552375 42.26277072 127.22342712 43.54980469 124.54541016 C44.80062801 121.93691642 46.03425619 119.32084643 47.265625 116.703125 C47.65510315 115.90408752 48.0445813 115.10505005 48.44586182 114.28179932 C50.4941086 109.9429347 50.4941086 109.9429347 50.86572266 105.23681641 C49.9690255 102.91996943 49.02025651 100.71758149 47.8828125 98.5078125 C47.44678711 97.65058594 47.01076172 96.79335937 46.56152344 95.91015625 C45.85044434 94.53150391 45.85044434 94.53150391 45.125 93.125 C44.11022106 91.1284968 43.09725214 89.13107275 42.0859375 87.1328125 C41.56870117 86.1109082 41.05146484 85.08900391 40.51855469 84.03613281 C38.19444241 79.38940286 35.97155027 74.69639879 33.75 70 C29.45201982 60.93935084 25.00304452 51.95980597 20.5 43 C15.81860381 33.68209711 11.18749819 24.34492865 6.6875 14.9375 C6.23761719 13.99841797 5.78773437 13.05933594 5.32421875 12.09179688 C3.41873557 8.08730489 1.64970668 4.12426669 0 0 Z " fill="#1A1A1A" transform="translate(1128,1178)"/>
<path d="M0 0 C22.708125 -0.0928125 22.708125 -0.0928125 45.875 -0.1875 C53.0213208 -0.22846802 53.0213208 -0.22846802 60.31201172 -0.27026367 C66.17016602 -0.28381348 66.17016602 -0.28381348 68.92044067 -0.28633118 C70.82418934 -0.29091079 72.72792979 -0.30140527 74.63162231 -0.31672668 C77.53044543 -0.33887268 80.42874096 -0.34171183 83.32763672 -0.34057617 C84.16291334 -0.3513705 84.99818996 -0.36216482 85.858778 -0.37328625 C97.96443923 -0.31033226 108.37447876 4.50879142 117.25 12.625 C128.59767043 24.66180021 129.31007228 39.20966685 129.1953125 54.8515625 C129.19157442 56.361845 129.18873121 57.87212996 129.18673706 59.38241577 C129.17916307 63.32463478 129.1595695 67.26670241 129.1373291 71.2088623 C129.11673503 75.24468947 129.10770657 79.2805415 129.09765625 83.31640625 C129.07631658 91.21101413 129.04118664 99.10547069 129 107 C120.09 107 111.18 107 102 107 C101.98541748 105.01226563 101.97083496 103.02453125 101.95581055 100.9765625 C101.90402751 94.38667241 101.83870645 87.79702353 101.76428509 81.20735168 C101.71968239 77.21458989 101.68040454 73.22192775 101.65356445 69.22900391 C101.62742997 65.37086487 101.58695731 61.51311144 101.53681374 57.6552124 C101.52021322 56.18817973 101.50865669 54.72108047 101.50238609 53.25396729 C101.56952356 40.3311473 101.56952356 40.3311473 95.625 29.1875 C89.67706664 24.23088887 84.94991406 22.91568713 77.29174805 22.79467773 C75.58722473 22.76440491 75.58722473 22.76440491 73.8482666 22.73352051 C72.07292542 22.70880676 72.07292542 22.70880676 70.26171875 22.68359375 C69.16589478 22.66494263 68.0700708 22.6462915 66.94104004 22.6270752 C62.85660691 22.55889544 58.7720441 22.49867154 54.6875 22.4375 C40.9821875 22.2209375 40.9821875 22.2209375 27 22 C27 50.05 27 78.1 27 107 C18.09 107 9.18 107 0 107 C0 71.69 0 36.38 0 0 Z " fill="#1A1A1A" transform="translate(1274,1178)"/>
<path d="M0 0 C8.91 0 17.82 0 27 0 C27 35.31 27 70.62 27 107 C60.66 107 94.32 107 129 107 C129 114.26 129 121.52 129 129 C86.43 129 43.86 129 0 129 C0 86.43 0 43.86 0 0 Z " fill="#1A1A1A" transform="translate(1016,1156)"/>
<path d="M0 0 C4.31633181 3.18586395 7.91120739 6.79612218 9.625 11.9375 C10.34723238 18.32409772 10.30962635 23.77744154 6.33178711 29.04541016 C0.45330296 35.56211051 -8.78364983 39.57931444 -16.3125 43.875 C-18.0423456 44.86742138 -19.77218843 45.85984765 -21.50186157 46.85256958 C-23.28439872 47.87514091 -25.06768197 48.89640134 -26.85107422 49.91748047 C-32.36689815 53.07719927 -37.87016642 56.25868782 -43.375 59.4375 C-45.52860538 60.67975764 -47.68225137 61.92194486 -49.8359375 63.1640625 C-54.30085129 65.73981927 -58.76418514 68.31828914 -63.2265625 70.8984375 C-82.7175612 82.16486236 -82.7175612 82.16486236 -91.8125 87.3125 C-92.76987061 87.85753174 -92.76987061 87.85753174 -93.74658203 88.41357422 C-99.44645887 91.62224058 -103.89651655 92.67249812 -110.375 91.9375 C-115.96954748 90.2820724 -119.29324983 87.44836721 -122.46484375 82.62109375 C-125.45919533 77.0821859 -125.00580392 71.12676067 -123.3125 65.25 C-118.67653201 57.32399021 -110.35128563 53.37509605 -102.5625 49 C-100.81912455 48.00772306 -99.07575558 47.01543448 -97.33279419 46.02243042 C-95.53352174 44.9985303 -93.73247255 43.97781199 -91.93115234 42.95751953 C-86.39354084 39.81702347 -80.88604119 36.62430488 -75.375 33.4375 C-73.21497393 32.19118061 -71.0548172 30.94508763 -68.89453125 29.69921875 C-63.38438197 26.52038207 -57.87528249 23.33973422 -52.36767578 20.15649414 C-50.18186397 18.89567242 -47.99406547 17.63828801 -45.80419922 16.38452148 C-40.65606248 13.43416171 -35.54491794 10.44583996 -30.49609375 7.328125 C-29.56643799 6.76569092 -28.63678223 6.20325684 -27.67895508 5.6237793 C-25.96379312 4.58417826 -24.26037186 3.5247958 -22.57299805 2.44067383 C-15.39854306 -1.85683292 -8.01077459 -2.52191052 0 0 Z " fill="#8E41FF" transform="translate(782.375,1366.0625)"/>
<path d="M0 0 C0.6717627 0.34796631 1.34352539 0.69593262 2.03564453 1.05444336 C12.12232953 6.367388 21.93304122 12.20380869 31.77636719 17.94970703 C36.16439362 20.50677196 40.56332794 23.04462414 44.96386719 25.58007812 C47.10848268 26.81578205 49.25236672 28.05275633 51.39550781 29.29101562 C56.43093976 32.20024063 61.47003128 35.1024837 66.52349854 37.98025513 C68.30569143 38.99557658 70.08661912 40.01308275 71.8671875 41.03125 C74.0964786 42.30513063 76.32810369 43.57493911 78.5625 44.83984375 C97.42046236 55.63638709 97.42046236 55.63638709 100.1875 63.9375 C100.91961743 70.69458386 100.40113287 76.42548026 96.1875 81.9375 C91.43605576 86.27859224 86.6483963 88.5861488 80.0546875 88.44921875 C66.20367765 85.97717203 52.28269828 74.83975673 40.40234375 67.82714844 C35.05776587 64.6856666 29.6850163 61.59337739 24.3125 58.5 C23.24539795 57.88447266 22.1782959 57.26894531 21.07885742 56.63476562 C16.01257244 53.7130344 10.94362776 50.7960722 5.8682251 47.89021301 C4.09565723 46.87499165 2.32383769 45.85847661 0.55224609 44.84155273 C-1.66338136 43.5702264 -3.88041074 42.30133879 -6.09912109 41.03540039 C-26.32997091 29.41613499 -26.32997091 29.41613499 -28.55859375 22.68359375 C-29.94022426 17.06267458 -30.30775191 12.25923195 -27.8125 6.9375 C-24.80197566 2.03801921 -21.43647811 -0.73722538 -16.03515625 -2.65234375 C-9.78579909 -3.80556432 -5.59487424 -2.90538673 0 0 Z " fill="#1FD5FF" transform="translate(765.8125,1084.0625)"/>
<path d="M0 0 C4.57198702 3.52424 7.12834383 6.87647634 9 12.3125 C9.25447559 14.69135952 9.25447559 14.69135952 9.26069641 17.20127869 C9.26778122 18.15869461 9.27486603 19.11611053 9.28216553 20.10253906 C9.27968811 21.14112061 9.27721069 22.17970215 9.2746582 23.24975586 C9.27976913 24.35275528 9.28488007 25.4557547 9.29014587 26.59217834 C9.30404292 30.23728871 9.30308504 33.88221004 9.30078125 37.52734375 C9.30466798 40.06173269 9.3090026 42.59612098 9.31376648 45.13050842 C9.32122885 50.4424172 9.32107553 55.75425661 9.31567383 61.06616211 C9.30963383 67.1981985 9.32194812 73.33000545 9.3432439 79.46200269 C9.36300765 85.37107388 9.36603088 91.28007418 9.36250877 97.18918037 C9.36302227 99.69899599 9.36826521 102.20881524 9.37832069 104.71861076 C9.39065532 108.22787029 9.38391081 111.7365986 9.37231445 115.24584961 C9.38378006 116.80068558 9.38378006 116.80068558 9.39547729 118.38693237 C9.34934366 124.70247101 8.60759622 129.075484 4.52734375 134.140625 C-0.15220301 138.32577247 -4.68044311 140.18707368 -11 140.3125 C-16.46789697 139.38529719 -21.1026377 137.3244906 -25 133.3125 C-28.68953372 127.73005129 -28.43777733 122.47576032 -28.41992188 116.01806641 C-28.42839142 114.88887283 -28.43686096 113.75967926 -28.44558716 112.5962677 C-28.46895895 108.86875094 -28.46997919 105.14164695 -28.46875 101.4140625 C-28.47585161 98.81863236 -28.48355061 96.22320378 -28.49182129 93.6277771 C-28.5052667 88.18897501 -28.50701613 82.75033385 -28.50097656 77.31152344 C-28.49433898 71.03905436 -28.51719391 64.76717381 -28.55429029 58.49482405 C-28.58876712 52.44421041 -28.59531777 46.39390782 -28.59120178 40.34318161 C-28.59289337 37.77639387 -28.60253951 35.20959839 -28.62034607 32.64287186 C-28.64252788 29.05001664 -28.63283551 25.45857384 -28.61523438 21.86572266 C-28.62849762 20.80987473 -28.64176086 19.75402679 -28.65542603 18.66618347 C-28.57968361 11.998095 -27.41652218 7.42725536 -23 2.3125 C-16.62378906 -2.89257015 -7.44417952 -3.93065513 0 0 Z " fill="#3CAEFF" transform="translate(524,1131.6875)"/>
<path d="M0 0 C32.67 0 65.34 0 99 0 C99 18 99 18 95.0625 23.4375 C93.38477451 24.96910943 91.69716755 26.48996272 90 28 C88.55108296 29.72339312 87.13480229 31.47467832 85.75 33.25 C81.6504808 38.32423006 77.26629138 43.0623033 72.79785156 47.80761719 C69.55481169 51.27026747 66.46585125 54.79268593 63.5 58.5 C60.01436715 62.85704106 56.32201655 66.94116315 52.5 71 C47.90917391 75.8765951 43.53959609 80.8447142 39.390625 86.109375 C38.60171875 87.06328125 37.8128125 88.0171875 37 89 C36.42064697 89.83515137 35.84129395 90.67030273 35.24438477 91.53076172 C32.10937822 95.64880659 29.80783827 98.56588701 24.64892578 99.8046875 C20.86528109 99.98271757 17.21646554 99.87628671 13.4375 99.625 C12.14263672 99.57988281 10.84777344 99.53476563 9.51367188 99.48828125 C6.33757971 99.37108228 3.17127041 99.20731427 0 99 C2.75207101 94.65598159 5.77754682 90.86673659 9.3125 87.125 C10.30010247 86.06307934 11.28708304 85.00057996 12.2734375 83.9375 C12.98258301 83.17566406 12.98258301 83.17566406 13.70605469 82.3984375 C17.49003083 78.30888744 21.09709909 74.06306638 24.70703125 69.8203125 C30.0521871 63.54560227 35.45915786 57.36345673 41.06982422 51.32470703 C43.96748224 48.18496883 46.70346573 44.95833511 49.375 41.625 C53.5391959 36.44238662 58.00421569 31.5952048 62.57177734 26.77001953 C63.1023877 26.20782715 63.63299805 25.64563477 64.1796875 25.06640625 C64.88714111 24.3230603 64.88714111 24.3230603 65.60888672 23.56469727 C67.1788528 21.79882984 68.58228731 19.89028358 70 18 C52.51 17.67 35.02 17.34 17 17 C17 20.63 17 24.26 17 28 C11.39 28 5.78 28 0 28 C0 18.76 0 9.52 0 0 Z " fill="#4F97FF" transform="translate(1905,1186)"/>
<path d="M0 0 C4.08375 -0.0928125 4.08375 -0.0928125 8.25 -0.1875 C9.10110352 -0.21481201 9.95220703 -0.24212402 10.82910156 -0.27026367 C14.25498053 -0.3079954 16.43962887 -0.3065353 19.4921875 1.36328125 C21.52804542 3.5731892 21.85758969 5.00938342 22 8 C21.62875 8.845625 21.2575 9.69125 20.875 10.5625 C20.441875 11.7690625 20.441875 11.7690625 20 13 C20.96457834 14.35917857 21.96854629 15.69084721 23 17 C23.5 20 23.5 20 23 23 C20.85189457 25.39348019 19.14083877 26.82689624 15.90185547 27.31835938 C13.48167632 27.39349814 11.10737423 27.3485479 8.6875 27.25 C4.3871875 27.12625 4.3871875 27.12625 0 27 C0 18.09 0 9.18 0 0 Z M4 4 C4 6.31 4 8.62 4 11 C5.79133978 11.05391993 7.58313899 11.09275571 9.375 11.125 C10.37273437 11.14820313 11.37046875 11.17140625 12.3984375 11.1953125 C15.16262173 11.27216848 15.16262173 11.27216848 17 9 C16.59471099 6.21762345 16.59471099 6.21762345 15 4 C13.14712498 3.92773498 11.29166122 3.9161878 9.4375 3.9375 C8.42558594 3.94652344 7.41367188 3.95554687 6.37109375 3.96484375 C5.58863281 3.97644531 4.80617188 3.98804688 4 4 Z M4 15 C4 17.64 4 20.28 4 23 C5.95825873 23.02694851 7.91662226 23.04637218 9.875 23.0625 C11.51082031 23.07990234 11.51082031 23.07990234 13.1796875 23.09765625 C15.95177546 23.19744303 15.95177546 23.19744303 18 22 C18 20.35 18 18.7 18 17 C14.78817851 15.09391902 12.46117397 14.77733753 8.75 14.875 C7.41195313 14.90207031 7.41195313 14.90207031 6.046875 14.9296875 C5.37140625 14.95289063 4.6959375 14.97609375 4 15 Z " fill="#1A1A1A" transform="translate(1617,1307)"/>
<path d="M0 0 C0.99 0 1.98 0 3 0 C4.66666667 0 6.33333333 0 8 0 C8.08797281 3.18732254 8.14071341 6.37432788 8.1875 9.5625 C8.21263672 10.45775391 8.23777344 11.35300781 8.26367188 12.27539062 C8.32631487 17.97590294 7.81183321 21.99453805 5 27 C0.27418827 29.70046385 -4.83189996 29.22065601 -10 28 C-10.99 27.34 -11.98 26.68 -13 26 C-12.34 24.68 -11.68 23.36 -11 22 C-9.700625 22.5259375 -9.700625 22.5259375 -8.375 23.0625 C-4.68262504 24.08815971 -2.63864508 24.15775071 1 23 C2.43637698 21.04836882 2.43637698 21.04836882 3 19 C2.34 19.33 1.68 19.66 1 20 C-3.63213493 20.55512815 -6.98172127 20.6364242 -11 18.125 C-14.05568756 14.87833197 -14.3919175 12.51365653 -14.359375 8.0390625 C-13.7567698 4.61993302 -11.63213933 3.06810948 -9 1 C-6.03609162 -0.48195419 -3.27556022 -0.05746597 0 0 Z M-8.4375 6.125 C-10.36638223 8.949095 -10.36638223 8.949095 -9.375 12.25 C-8.29166667 15.10416667 -8.29166667 15.10416667 -6 16 C-1.86935374 16.37615126 -1.86935374 16.37615126 1.875 14.875 C3.54663625 12.08893958 3.46376624 10.18011138 3 7 C0.92584514 4.69538349 -0.47399051 4.1052019 -3.5 3.5 C-6.20819758 3.82646911 -6.20819758 3.82646911 -8.4375 6.125 Z " fill="#1A1A1A" transform="translate(1523,1313)"/>
<path d="M0 0 C1.65 0 3.3 0 5 0 C5 9.57 5 19.14 5 29 C2.463125 29.103125 -0.07375 29.20625 -2.6875 29.3125 C-3.47729248 29.35802002 -4.26708496 29.40354004 -5.08081055 29.45043945 C-9.21517496 29.53146442 -10.60379217 29.32083936 -13.95703125 26.60546875 C-16.56417059 23.28049372 -17.20907325 21.83073298 -16.9375 17.6875 C-16.50218625 14.2711136 -15.9223482 12.30143913 -13.375 9.9375 C-9.51443013 7.72124693 -7.37959914 7.49466164 -3 8 C-2.34 8.33 -1.68 8.66 -1 9 C-0.67 6.03 -0.34 3.06 0 0 Z M-10.25 13.0625 C-12.34007101 15.00448479 -12.34007101 15.00448479 -12.4375 18.5 C-12.24887668 21.86213565 -12.24887668 21.86213565 -10.875 23.9375 C-8.11019567 25.50422245 -6.11811483 25.38976435 -3 25 C-1 24 -1 24 0 22 C0.5518663 18.29461199 0.49369241 16.67001113 -1.75 13.625 C-4.79202238 11.42798384 -6.87419729 11.46837094 -10.25 13.0625 Z " fill="#1A1A1A" transform="translate(1834,1305)"/>
<path d="M0 0 C3.5578125 -0.0928125 3.5578125 -0.0928125 7.1875 -0.1875 C8.29387817 -0.22846802 8.29387817 -0.22846802 9.42260742 -0.27026367 C13.83235823 -0.32564609 16.51636886 0.28834671 20 3 C21.74327413 5.93187013 22.0143242 7.64905716 21.875 11.0625 C20.87136778 14.43183675 19.69474555 15.79520819 17 18 C14.35541621 19.32229189 12.32238699 19.09677194 9.375 19.0625 C8.37210938 19.05347656 7.36921875 19.04445313 6.3359375 19.03515625 C5.56507812 19.02355469 4.79421875 19.01195312 4 19 C4 21.64 4 24.28 4 27 C2.68 27 1.36 27 0 27 C0 18.09 0 9.18 0 0 Z M4 4 C4 7.63 4 11.26 4 15 C5.588125 15.061875 7.17625 15.12375 8.8125 15.1875 C9.70582031 15.22230469 10.59914063 15.25710938 11.51953125 15.29296875 C14.04046389 15.20628578 14.04046389 15.20628578 15.80078125 13.64453125 C17.50731102 11.30430639 17.42408618 9.8272412 17 7 C15.85047348 5.25595059 15.85047348 5.25595059 14 4 C11.48710325 3.63786432 11.48710325 3.63786432 8.8125 3.8125 C7.224375 3.874375 5.63625 3.93625 4 4 Z " fill="#1A1A1A" transform="translate(1749,1307)"/>
<path d="M0 0 C1.32 0 2.64 0 4 0 C4.06058594 1.26457031 4.12117188 2.52914063 4.18359375 3.83203125 C4.26800904 5.49219871 4.35265655 7.15235437 4.4375 8.8125 C4.47681641 9.64587891 4.51613281 10.47925781 4.55664062 11.33789062 C4.59853516 12.14033203 4.64042969 12.94277344 4.68359375 13.76953125 C4.72025146 14.50792236 4.75690918 15.24631348 4.79467773 16.00708008 C4.94842141 18.207495 4.94842141 18.207495 6 21 C9.04300316 22.52150158 11.654085 22.23899393 15 22 C17.05127844 18.92308234 17.27260872 18.06355001 17.4140625 14.55078125 C17.45273438 13.70322266 17.49140625 12.85566406 17.53125 11.98242188 C17.5621875 11.10134766 17.593125 10.22027344 17.625 9.3125 C17.66367188 8.41982422 17.70234375 7.52714844 17.7421875 6.60742188 C17.83640218 4.4051538 17.92201588 2.20289278 18 0 C19.65 0 21.3 0 23 0 C23.08156437 2.85475306 23.14076372 5.70713565 23.1875 8.5625 C23.21263672 9.36236328 23.23777344 10.16222656 23.26367188 10.98632812 C23.3303162 16.42894777 22.7265368 20.23928294 20 25 C15.98433004 28.0221882 10.79702149 27.65202234 6 27 C3.06576805 25.20353146 1.52794645 24.0558929 0 21 C-0.08400529 19.40552536 -0.10727467 17.80759455 -0.09765625 16.2109375 C-0.09443359 15.26992187 -0.09121094 14.32890625 -0.08789062 13.359375 C-0.07951172 12.37453125 -0.07113281 11.3896875 -0.0625 10.375 C-0.05798828 9.38242188 -0.05347656 8.38984375 -0.04882812 7.3671875 C-0.03702145 4.9113984 -0.020554 2.45572896 0 0 Z " fill="#1A1A1A" transform="translate(1280,1307)"/>
<path d="M0 0 C1.32 0 2.64 0 4 0 C4.33 5.28 4.66 10.56 5 16 C6.381875 14.68 7.76375 13.36 9.1875 12 C13.31057692 8.06153846 13.31057692 8.06153846 16.80078125 7.75 C17.52652344 7.8325 18.25226563 7.915 19 8 C17.33248852 11.94139078 14.77289351 14.7892812 12 18 C12.5775 18.71027344 13.155 19.42054687 13.75 20.15234375 C14.4925 21.07144531 15.235 21.99054688 16 22.9375 C17.11375 24.31228516 17.11375 24.31228516 18.25 25.71484375 C20 28 20 28 20 29 C17.375 29.5 17.375 29.5 14 29 C11.6317567 26.56775013 9.80488213 23.86733048 8 21 C4.68539295 22.70892499 4.68539295 22.70892499 4.3125 26.125 C4.209375 27.07375 4.10625 28.0225 4 29 C2.68 29 1.36 29 0 29 C0 19.43 0 9.86 0 0 Z " fill="#1A1A1A" transform="translate(1400,1305)"/>
<path d="M0 0 C1.65 0 3.3 0 5 0 C6.98 4.62 8.96 9.24 11 14 C13.31 9.38 15.62 4.76 18 0 C19.32 0 20.64 0 22 0 C20.20477808 5.91367222 18.01769606 11.6191104 15.625 17.3125 C15.34519287 18.00601562 15.06538574 18.69953125 14.77709961 19.4140625 C12.9228078 23.73637211 11.16211903 26.49105909 7 29 C3.25 28.875 3.25 28.875 0 28 C-0.33 27.34 -0.66 26.68 -1 26 C0.25 24.4375 0.25 24.4375 2 23 C4.1875 23.3125 4.1875 23.3125 6 24 C7.18799075 22.24025277 7.18799075 22.24025277 8 20 C7.55079607 17.85423244 7.55079607 17.85423244 6.4453125 15.7421875 C6.07792969 14.95199219 5.71054688 14.16179687 5.33203125 13.34765625 C4.93371094 12.53167969 4.53539062 11.71570312 4.125 10.875 C3.3538749 9.24876587 2.58550519 7.62122142 1.8203125 5.9921875 C1.47242676 5.27401855 1.12454102 4.55584961 0.76611328 3.81591797 C0 2 0 2 0 0 Z " fill="#1A1A1A" transform="translate(1976,1313)"/>
<path d="M0 0 C2.96922861 1.79349379 5.42452071 3.84904142 7 7 C7.37712577 11.99691647 7.09290612 14.99067725 4 19 C-0.24629573 21.83086382 -4.0161657 21.76307511 -9 21 C-12.73325038 18.48577015 -13.74796824 16.86635918 -15 12.5625 C-15 8.41043888 -14.33117811 6.41906123 -12 3 C-8.13891632 -0.21756973 -4.94137485 -0.69352629 0 0 Z M-8.25 5.625 C-10.49369241 8.67001113 -10.5518663 10.29461199 -10 14 C-9 16 -9 16 -7 17 C-3.88188517 17.38976435 -1.88980433 17.50422245 0.875 15.9375 C2.66235303 12.85928089 2.43386742 10.47093932 2 7 C0.36549876 4.94054984 0.36549876 4.94054984 -2 4 C-5.92212225 3.60967296 -5.92212225 3.60967296 -8.25 5.625 Z " fill="#1A1A1A" transform="translate(1806,1313)"/>
<path d="M0 0 C2.96922861 1.79349379 5.42452071 3.84904142 7 7 C7.37712577 11.99691647 7.09290612 14.99067725 4 19 C-0.24629573 21.83086382 -4.0161657 21.76307511 -9 21 C-12.73325038 18.48577015 -13.74796824 16.86635918 -15 12.5625 C-15 8.41043888 -14.33117811 6.41906123 -12 3 C-8.13891632 -0.21756973 -4.94137485 -0.69352629 0 0 Z M-8.25 5.625 C-10.49369241 8.67001113 -10.5518663 10.29461199 -10 14 C-9 16 -9 16 -7 17 C-3.88188517 17.38976435 -1.88980433 17.50422245 0.875 15.9375 C2.66235303 12.85928089 2.43386742 10.47093932 2 7 C0.36549876 4.94054984 0.36549876 4.94054984 -2 4 C-5.92212225 3.60967296 -5.92212225 3.60967296 -8.25 5.625 Z " fill="#1A1A1A" transform="translate(1685,1313)"/>
<path d="M0 0 C1.32 0 2.64 0 4 0 C4.33 2.97 4.66 5.94 5 9 C5.66 8.67 6.32 8.34 7 8 C11.2148851 7.5228432 13.24753952 7.44378641 16.7109375 10.00390625 C19.72645201 13.95083394 19.59155317 16.50849235 19.3125 21.3125 C19.28994141 22.05306641 19.26738281 22.79363281 19.24414062 23.55664062 C19.1855815 25.37197357 19.09590886 27.18625681 19 29 C17.68 29 16.36 29 15 29 C14.95101563 28.01257812 14.90203125 27.02515625 14.8515625 26.0078125 C14.73941406 24.08582031 14.73941406 24.08582031 14.625 22.125 C14.55539062 20.84882812 14.48578125 19.57265625 14.4140625 18.2578125 C14.32758894 14.91938301 14.32758894 14.91938301 12 13 C8.17435335 13.18757062 8.17435335 13.18757062 5 15 C4.76472227 17.34987262 4.58613583 19.70556039 4.4375 22.0625 C4.35371094 23.35285156 4.26992187 24.64320312 4.18359375 25.97265625 C4.12300781 26.97167969 4.06242187 27.97070312 4 29 C2.68 29 1.36 29 0 29 C0 19.43 0 9.86 0 0 Z " fill="#1A1A1A" transform="translate(1539,1305)"/>
<path d="M0 0 C1.65 0 3.3 0 5 0 C5.06058594 1.07121094 5.12117188 2.14242188 5.18359375 3.24609375 C5.26798537 4.64324391 5.35263406 6.04037857 5.4375 7.4375 C5.47681641 8.14455078 5.51613281 8.85160156 5.55664062 9.58007812 C5.47624438 13.08690419 5.47624438 13.08690419 7 16 C10 16.16666667 10 16.16666667 13 16 C14.99616554 14.00383446 14.40983427 10.18298037 14.5625 7.4375 C14.60568359 6.72658203 14.64886719 6.01566406 14.69335938 5.28320312 C14.79971777 3.52238088 14.90038846 1.7612168 15 0 C16.65 0 18.3 0 20 0 C20 6.93 20 13.86 20 21 C18.35 20.67 16.7 20.34 15 20 C14.67 20.33 14.34 20.66 14 21 C9.88689536 21.4338366 6.20439164 21.63230561 2.5 19.6875 C-0.70644382 16.0802507 -0.11752527 11.84573531 -0.0625 7.3125 C-0.05798828 6.61060547 -0.05347656 5.90871094 -0.04882812 5.18554688 C-0.03706927 3.45699462 -0.01913454 1.72848635 0 0 Z " fill="#1A1A1A" transform="translate(1846,1313)"/>
<path d="M0 0 C2.62622764 2.02594703 4.01018857 3.68159861 4.59375 6.9921875 C4.767207 11.74780029 4.76097227 13.95227915 1.75 17.8125 C-1.58989809 20.03646058 -4.74241246 20.34085226 -8.69140625 20.12109375 C-11.85660413 19.47406435 -13.62994488 18.00646482 -15.8125 15.6875 C-17.40939041 12.49371918 -17.18598957 9.16228685 -16.8125 5.6875 C-15.56261855 2.81277265 -14.55781416 1.24648562 -12.0625 -0.625 C-7.72512545 -1.95030889 -4.11709119 -1.92130922 0 0 Z M-10.625 4.8125 C-13.13418347 7.50818624 -13.13418347 7.50818624 -12.8125 10.875 C-12.02512767 13.97773828 -12.02512767 13.97773828 -8.8125 15.6875 C-5.8125 16.1875 -5.8125 16.1875 -2.8125 15.6875 C-0.69579643 14.22708234 -0.69579643 14.22708234 0.1875 11.6875 C0.19418717 8.06692732 0.19418717 8.06692732 -0.8125 4.6875 C-4.88283286 1.97394476 -6.69243358 1.84122759 -10.625 4.8125 Z " fill="#1A1A1A" transform="translate(1365.8125,1314.3125)"/>
<path d="M0 0 C2.78901573 1.23956255 4.44350587 2.28450754 6.3125 4.6875 C7.34258338 8.15232593 7.5914722 11.45116679 7 15 C5.20636089 17.8100346 3.98119065 19.50940468 1 21 C-3.63213493 21.55512815 -6.98172127 21.6364242 -11 19.125 C-14.30431828 15.61416183 -14.38948117 12.93570206 -14.359375 8.26171875 C-13.78943134 4.67479071 -11.79773951 3.13161106 -9 1 C-5.93570224 -0.53214888 -3.3834358 -0.22938548 0 0 Z M-8.375 6.125 C-10.28317448 8.91285454 -10.28317448 8.91285454 -9.875 12.1875 C-9.20708821 15.10299708 -9.20708821 15.10299708 -7 17 C-3.54213985 17.50007794 -3.54213985 17.50007794 0 17 C2.16666667 15.5 2.16666667 15.5 3 13 C2.87046154 9.82630784 2.51878767 7.77818151 0.75 5.125 C-2.92390139 2.76320625 -5.20079816 3.28492467 -8.375 6.125 Z " fill="#1A1A1A" transform="translate(1659,1313)"/>
<path d="M0 0 C2.66666667 0 5.33333333 0 8 0 C9.11375 -0.103125 10.2275 -0.20625 11.375 -0.3125 C15 0 15 0 17.70703125 2 C20.72598348 5.94983869 20.5917816 8.50455987 20.3125 13.3125 C20.28994141 14.05306641 20.26738281 14.79363281 20.24414062 15.55664062 C20.1855815 17.37197357 20.09590886 19.18625681 20 21 C18.68 21 17.36 21 16 21 C15.95101563 20.18015625 15.90203125 19.3603125 15.8515625 18.515625 C15.73941406 16.89914062 15.73941406 16.89914062 15.625 15.25 C15.55539062 14.18265625 15.48578125 13.1153125 15.4140625 12.015625 C15.0271777 9.19793568 14.44313834 7.4169634 13 5 C10.58354218 4.83312552 10.58354218 4.83312552 8 5 C5.14206684 7.85793316 5.59200059 10.14665584 5.375 14.125 C5.26285156 16.04699219 5.26285156 16.04699219 5.1484375 18.0078125 C5.09945313 18.99523438 5.05046875 19.98265625 5 21 C3.35 21 1.7 21 0 21 C0 14.07 0 7.14 0 0 Z " fill="#1A1A1A" transform="translate(1450,1313)"/>
<path d="M0 0 C2.475 0.495 2.475 0.495 5 1 C7.30649639 0.80941261 9.5351214 0.44210264 11.81640625 0.05859375 C14.51361201 -0.01378208 15.78581712 0.46926469 18 2 C20.66718221 5.52269349 20.22872098 9.52935409 20.125 13.75 C20.11597656 14.44738281 20.10695313 15.14476562 20.09765625 15.86328125 C20.07419888 17.57566958 20.03833104 19.28788004 20 21 C18.35 21 16.7 21 15 21 C14.67 16.05 14.34 11.1 14 6 C10.01828262 5.2790955 10.01828262 5.2790955 6 5 C5.34 10.28 4.68 15.56 4 21 C2.68 21 1.36 21 0 21 C0 14.07 0 7.14 0 0 Z " fill="#1A1A1A" transform="translate(1311,1313)"/>
<path d="M0 0 C0.7734375 0.495 0.7734375 0.495 1.5625 1 C1.2325 2.32 0.9025 3.64 0.5625 5 C-0.06398438 4.9278125 -0.69046875 4.855625 -1.3359375 4.78125 C-2.15320312 4.6884375 -2.97046875 4.595625 -3.8125 4.5 C-4.62460938 4.4071875 -5.43671875 4.314375 -6.2734375 4.21875 C-8.40662825 3.96647649 -8.40662825 3.96647649 -10.4375 4 C-8.11868495 6.67901932 -6.11935532 7.66204403 -2.75 8.6875 C-1.53763672 9.06455078 -1.53763672 9.06455078 -0.30078125 9.44921875 C0.31410156 9.63097656 0.92898438 9.81273437 1.5625 10 C2.48427046 13.37982503 2.97651228 15.21337667 1.3125 18.375 C-2.99273506 20.91900253 -7.55118526 20.64156194 -12.4375 20 C-13.4275 19.34 -14.4175 18.68 -15.4375 18 C-14.7775 16.68 -14.1175 15.36 -13.4375 14 C-12.7775 14.33 -12.1175 14.66 -11.4375 15 C-10.06407169 15.0689472 -8.68747898 15.08467708 -7.3125 15.0625 C-6.03375 15.041875 -4.755 15.02125 -3.4375 15 C-3.4375 14.34 -3.4375 13.68 -3.4375 13 C-4.14777344 12.79503906 -4.85804687 12.59007812 -5.58984375 12.37890625 C-6.50894531 12.10949219 -7.42804688 11.84007812 -8.375 11.5625 C-9.29152344 11.29566406 -10.20804688 11.02882813 -11.15234375 10.75390625 C-13.4375 10 -13.4375 10 -14.4375 9 C-14.8125 5.625 -14.8125 5.625 -14.4375 2 C-10.33381053 -1.85498102 -5.11645305 -2.09905766 0 0 Z " fill="#1A1A1A" transform="translate(1596.4375,1314)"/>
<path d="M0 0 C0.7734375 0.495 0.7734375 0.495 1.5625 1 C1.2325 2.32 0.9025 3.64 0.5625 5 C-0.06398438 4.9278125 -0.69046875 4.855625 -1.3359375 4.78125 C-2.15320312 4.6884375 -2.97046875 4.595625 -3.8125 4.5 C-4.62460938 4.4071875 -5.43671875 4.314375 -6.2734375 4.21875 C-8.40662825 3.96647649 -8.40662825 3.96647649 -10.4375 4 C-8.11868495 6.67901932 -6.11935532 7.66204403 -2.75 8.6875 C-1.53763672 9.06455078 -1.53763672 9.06455078 -0.30078125 9.44921875 C0.31410156 9.63097656 0.92898438 9.81273437 1.5625 10 C2.48427046 13.37982503 2.97651228 15.21337667 1.3125 18.375 C-2.99273506 20.91900253 -7.55118526 20.64156194 -12.4375 20 C-13.4275 19.34 -14.4175 18.68 -15.4375 18 C-14.7775 16.68 -14.1175 15.36 -13.4375 14 C-12.7775 14.33 -12.1175 14.66 -11.4375 15 C-10.06407169 15.0689472 -8.68747898 15.08467708 -7.3125 15.0625 C-6.03375 15.041875 -4.755 15.02125 -3.4375 15 C-3.4375 14.34 -3.4375 13.68 -3.4375 13 C-4.14777344 12.79503906 -4.85804687 12.59007812 -5.58984375 12.37890625 C-6.50894531 12.10949219 -7.42804688 11.84007812 -8.375 11.5625 C-9.29152344 11.29566406 -10.20804688 11.02882813 -11.15234375 10.75390625 C-13.4375 10 -13.4375 10 -14.4375 9 C-14.8125 5.625 -14.8125 5.625 -14.4375 2 C-10.33381053 -1.85498102 -5.11645305 -2.09905766 0 0 Z " fill="#1A1A1A" transform="translate(1490.4375,1314)"/>
<path d="M0 0 C0.99 0.33 1.98 0.66 3 1 C2.67 2.65 2.34 4.3 2 6 C-0.97 5.67 -3.94 5.34 -7 5 C-7.33 5.99 -7.66 6.98 -8 8 C-7.30132813 8.12117188 -6.60265625 8.24234375 -5.8828125 8.3671875 C-4.97273438 8.53476563 -4.06265625 8.70234375 -3.125 8.875 C-2.22007813 9.03742188 -1.31515625 9.19984375 -0.3828125 9.3671875 C2 10 2 10 4 12 C4.375 14.9375 4.375 14.9375 4 18 C1.7686463 20.23656715 0.4285697 20.94842428 -2.7265625 21.328125 C-3.68304687 21.30234375 -4.63953125 21.2765625 -5.625 21.25 C-6.58664062 21.23453125 -7.54828125 21.2190625 -8.5390625 21.203125 C-11 21 -11 21 -13 20 C-12.67 18.35 -12.34 16.7 -12 15 C-11.01 15.33 -10.02 15.66 -9 16 C-7.60560336 16.06665376 -6.20830125 16.08538199 -4.8125 16.0625 C-3.554375 16.041875 -2.29625 16.02125 -1 16 C-0.67 15.34 -0.34 14.68 0 14 C-1.03060547 13.83564453 -1.03060547 13.83564453 -2.08203125 13.66796875 C-2.98308594 13.50941406 -3.88414063 13.35085938 -4.8125 13.1875 C-5.70582031 13.03667969 -6.59914063 12.88585938 -7.51953125 12.73046875 C-10.21960731 11.93532824 -11.30560872 11.21532064 -13 9 C-13.5 6.5625 -13.5 6.5625 -13 4 C-9.01374131 -0.60911161 -5.70515554 -0.46009319 0 0 Z " fill="#1A1A1A" transform="translate(1709,1313)"/>
<path d="M0 0 C1.0209375 0.8353125 1.0209375 0.8353125 2.0625 1.6875 C2.0625 2.6775 2.0625 3.6675 2.0625 4.6875 C1.0725 5.0175 0.0825 5.3475 -0.9375 5.6875 C-1.9275 5.0275 -2.9175 4.3675 -3.9375 3.6875 C-7.01415027 3.76971709 -7.01415027 3.76971709 -9.9375 4.6875 C-12.27525029 7.52323263 -12.27525029 7.52323263 -11.6875 10.8125 C-11.44 11.76125 -11.1925 12.71 -10.9375 13.6875 C-7.14390675 15.58429663 -2.89354392 14.90474428 1.0625 13.6875 C1.0625 15.0075 1.0625 16.3275 1.0625 17.6875 C-1.41768753 20.16768753 -2.32265951 20.01111558 -5.75 20.0625 C-9.44452101 19.99843316 -10.75910827 19.79671943 -14 17.8125 C-17.02556195 14.49414173 -17.22143608 12.21234741 -17.15625 7.72265625 C-16.83670564 4.74975243 -15.82339752 2.97751841 -13.9375 0.6875 C-9.71705486 -2.47783386 -4.63940801 -2.07292698 0 0 Z " fill="#1A1A1A" transform="translate(1888.9375,1314.3125)"/>
<path d="M0 0 C2.05145046 1.57803881 2.28911682 2.73087612 2.625 5.25 C0.75 5.875 0.75 5.875 -1.375 6.25 C-2.035 5.59 -2.695 4.93 -3.375 4.25 C-5.83241537 3.74985047 -5.83241537 3.74985047 -8.375 4.25 C-10.40396212 5.78813421 -10.40396212 5.78813421 -11.375 8.25 C-11.23976161 12.0855908 -11.23976161 12.0855908 -9.375 15.25 C-5.5388778 15.39475933 -2.05192213 15.42661508 1.625 14.25 C1.625 15.57 1.625 16.89 1.625 18.25 C-2.39358595 20.9290573 -5.65141721 20.94610694 -10.375 20.25 C-13.24529869 18.45606332 -14.86631638 17.26736724 -16.375 14.25 C-16.79571592 11.19079426 -16.86014117 8.3032254 -16.375 5.25 C-11.81221599 -0.51351664 -7.23665182 -2.28525847 0 0 Z " fill="#1A1A1A" transform="translate(1391.375,1313.75)"/>
<path d="M0 0 C2.32421875 0.12109375 2.32421875 0.12109375 5 1 C6.58203125 3.72265625 6.58203125 3.72265625 7.8125 7.0625 C8.23144531 8.16722656 8.65039062 9.27195312 9.08203125 10.41015625 C9.38496094 11.26480469 9.68789062 12.11945313 10 13 C12.23067325 10.21325634 13.78857967 7.53022699 15.1875 4.25 C15.53167969 3.45078125 15.87585937 2.6515625 16.23046875 1.828125 C16.61138672 0.92320313 16.61138672 0.92320313 17 0 C18.32 0 19.64 0 21 0 C20.42460686 5.20285068 18.70581107 9.23956036 16.4375 13.875 C16.10814453 14.56335937 15.77878906 15.25171875 15.43945312 15.9609375 C14.63304639 17.6438733 13.81745506 19.32240293 13 21 C11.35 21 9.7 21 8 21 C6.65757579 18.06657102 5.32765933 15.12763748 4 12.1875 C3.6184375 11.35412109 3.236875 10.52074219 2.84375 9.66210938 C2.4828125 8.85966797 2.121875 8.05722656 1.75 7.23046875 C1.41484375 6.49207764 1.0796875 5.75368652 0.734375 4.99291992 C0 3 0 3 0 0 Z " fill="#1A1A1A" transform="translate(1924,1313)"/>
<path d="M0 0 C1.32 0 2.64 0 4 0 C4 1.32 4 2.64 4 4 C5.98 4 7.96 4 10 4 C10 5.32 10 6.64 10 8 C8.02 8 6.04 8 4 8 C4.33 11.96 4.66 15.92 5 20 C6.98 20.33 8.96 20.66 11 21 C10.67 22.32 10.34 23.64 10 25 C8.72125 25.061875 7.4425 25.12375 6.125 25.1875 C5.04605469 25.23970703 5.04605469 25.23970703 3.9453125 25.29296875 C3.30335937 25.19628906 2.66140625 25.09960938 2 25 C-0.49118953 21.2632157 -0.2065226 19.25548181 -0.125 14.8125 C-0.10695313 13.54019531 -0.08890625 12.26789063 -0.0703125 10.95703125 C-0.04710937 9.98121094 -0.02390625 9.00539063 0 8 C-1.32 8 -2.64 8 -4 8 C-4 6.68 -4 5.36 -4 4 C-2.68 4 -1.36 4 0 4 C0 2.68 0 1.36 0 0 Z " fill="#1A1A1A" transform="translate(1963,1309)"/>
<path d="M0 0 C1.32 0 2.64 0 4 0 C4 1.32 4 2.64 4 4 C5.98 4 7.96 4 10 4 C10 5.32 10 6.64 10 8 C8.02 8 6.04 8 4 8 C4.33 11.96 4.66 15.92 5 20 C6.98 20.33 8.96 20.66 11 21 C10.67 22.32 10.34 23.64 10 25 C8.72125 25.061875 7.4425 25.12375 6.125 25.1875 C5.04605469 25.23970703 5.04605469 25.23970703 3.9453125 25.29296875 C3.30335937 25.19628906 2.66140625 25.09960938 2 25 C-0.49118953 21.2632157 -0.2065226 19.25548181 -0.125 14.8125 C-0.10695313 13.54019531 -0.08890625 12.26789063 -0.0703125 10.95703125 C-0.04710937 9.98121094 -0.02390625 9.00539063 0 8 C-1.32 8 -2.64 8 -4 8 C-4 6.68 -4 5.36 -4 4 C-2.68 4 -1.36 4 0 4 C0 2.68 0 1.36 0 0 Z " fill="#1A1A1A" transform="translate(1898,1309)"/>
<path d="M0 0 C1.32 0 2.64 0 4 0 C4 1.32 4 2.64 4 4 C5.98 4 7.96 4 10 4 C10 5.32 10 6.64 10 8 C8.02 8 6.04 8 4 8 C4.33 11.96 4.66 15.92 5 20 C6.98 20.66 8.96 21.32 11 22 C10.67 22.99 10.34 23.98 10 25 C3.9453125 25.1953125 3.9453125 25.1953125 2 25 C0 23 0 23 -0.1953125 19.5234375 C-0.18201493 18.14049032 -0.15816232 16.75761346 -0.125 15.375 C-0.11597656 14.66859375 -0.10695313 13.9621875 -0.09765625 13.234375 C-0.07407603 11.48943902 -0.03820461 9.74467705 0 8 C-1.32 8 -2.64 8 -4 8 C-4 6.68 -4 5.36 -4 4 C-2.68 4 -1.36 4 0 4 C0 2.68 0 1.36 0 0 Z " fill="#1A1A1A" transform="translate(1567,1309)"/>
<path d="M0 0 C1.32 0 2.64 0 4 0 C4 1.32 4 2.64 4 4 C5.98 4 7.96 4 10 4 C10 5.32 10 6.64 10 8 C8.02 8 6.04 8 4 8 C4.33 12.29 4.66 16.58 5 21 C6.98 21 8.96 21 11 21 C11 22.32 11 23.64 11 25 C3.59946476 25.36396075 3.59946476 25.36396075 1.25 23.9375 C-0.67816053 20.94885117 -0.2839325 18.31621405 -0.1875 14.8125 C-0.16042969 13.54019531 -0.13335938 12.26789063 -0.10546875 10.95703125 C-0.07066406 9.98121094 -0.03585937 9.00539063 0 8 C-0.99 8 -1.98 8 -3 8 C-3 6.68 -3 5.36 -3 4 C-2.01 4 -1.02 4 0 4 C0 2.68 0 1.36 0 0 Z " fill="#1A1A1A" transform="translate(1719,1309)"/>
<path d="M0 0 C4 0 8 0 12 0 C12 1.65 12 3.3 12 5 C11.195625 5.144375 10.39125 5.28875 9.5625 5.4375 C7.07896294 5.74135249 7.07896294 5.74135249 6 7 C5.76472227 9.34987262 5.58613583 11.70556039 5.4375 14.0625 C5.35371094 15.35285156 5.26992187 16.64320312 5.18359375 17.97265625 C5.12300781 18.97167969 5.06242187 19.97070312 5 21 C3.35 21 1.7 21 0 21 C0 14.07 0 7.14 0 0 Z " fill="#1A1A1A" transform="translate(1776,1313)"/>
<path d="M0 0 C1.65 0 3.3 0 5 0 C5 8.91 5 17.82 5 27 C3.35 27 1.7 27 0 27 C0 18.09 0 9.18 0 0 Z " fill="#1A1A1A" transform="translate(1437,1307)"/>
<path d="M0 0 C1.32 0 2.64 0 4 0 C4 9.57 4 19.14 4 29 C2.68 29 1.36 29 0 29 C0 19.43 0 9.86 0 0 Z " fill="#1A1A1A" transform="translate(1339,1305)"/>
<path d="M0 0 C1.65 0 3.3 0 5 0 C5 6.93 5 13.86 5 21 C3.35 21 1.7 21 0 21 C0 14.07 0 7.14 0 0 Z " fill="#1A1A1A" transform="translate(1498,1313)"/>
<path d="M0 0 C1.32 0 2.64 0 4 0 C4 6.93 4 13.86 4 21 C2.68 21 1.36 21 0 21 C0 14.07 0 7.14 0 0 Z " fill="#1A1A1A" transform="translate(1950,1313)"/>
<path d="M0 0 C1.32 0 2.64 0 4 0 C4 6.93 4 13.86 4 21 C2.68 21 1.36 21 0 21 C0 14.07 0 7.14 0 0 Z " fill="#1A1A1A" transform="translate(1915,1313)"/>
<path d="M0 0 C1.65 0.33 3.3 0.66 5 1 C4.6875 2.9375 4.6875 2.9375 4 5 C3.01 5.33 2.02 5.66 1 6 C0.34 5.67 -0.32 5.34 -1 5 C-0.67 3.35 -0.34 1.7 0 0 Z " fill="#1A1A1A" transform="translate(1915,1305)"/>
<path d="M0 0 C2.125 0.375 2.125 0.375 4 1 C4 2.32 4 3.64 4 5 C2.68 5.33 1.36 5.66 0 6 C-0.66 4.68 -1.32 3.36 -2 2 C-1.34 1.34 -0.68 0.68 0 0 Z " fill="#1A1A1A" transform="translate(1951,1305)"/>
<path d="M0 0 C1.98 0.495 1.98 0.495 4 1 C3.67 2.65 3.34 4.3 3 6 C1.68 5.67 0.36 5.34 -1 5 C-0.67 3.35 -0.34 1.7 0 0 Z " fill="#1A1A1A" transform="translate(1499,1305)"/>
</svg>
